<svg id="Layer_1" data-name="Layer 1" xmlns="http://www.w3.org/2000/svg" viewBox="0 0 2328 2500"><defs><style>.cls-1,.cls-2{fill:#facc15;}.cls-1{fill-rule:evenodd;}.cls-3{fill:#d3d7da;}.cls-4{fill:#ffa21a;}.cls-5{fill:#f27622;}.cls-6{fill:#b3b7ba;}.cls-7{fill:#95999b;}.cls-8{fill:#7a7c7c;}.cls-9{fill:#ed1f23;}.cls-10{fill:#ffb229;}.cls-11{fill:#fccf4e;}.cls-12{fill:#fff;}.cls-13{fill:#0a0a0a;}.cls-14{fill:#515151;}</style></defs><title>cactus2</title><path class="cls-1" d="M1414.4,344.82H919.13V2504.71H1414.4Z"/><rect class="cls-2" x="1403.56" y="1678.11" width="187.55" height="262.57" transform="translate(2994.67 3618.8) rotate(180)"/><rect class="cls-2" x="1590.33" y="1678.11" width="75.8" height="214.34" transform="translate(3256.46 3570.57) rotate(180)"/><rect class="cls-2" x="1664.96" y="1678.11" width="75.8" height="174.15" transform="translate(3405.72 3530.38) rotate(180)"/><rect class="cls-2" x="1546.97" y="1073.29" width="193.51" height="632.18" transform="translate(3287.45 2778.75) rotate(180)"/><rect class="cls-2" x="1579.64" y="1049.48" width="136.97" height="27.49" transform="translate(3296.24 2126.45) rotate(180)"/><rect class="cls-2" x="1024.79" y="293.61" width="308.5" height="56.92" transform="translate(2358.08 644.14) rotate(180)"/><rect class="cls-2" x="736.89" y="2029.95" width="187.55" height="262.57"/><rect class="cls-2" x="661.87" y="2029.95" width="75.8" height="214.34"/><rect class="cls-2" x="587.24" y="2029.95" width="75.8" height="174.15"/><rect class="cls-2" x="587.52" y="1028.06" width="110.93" height="1125.72"/><rect class="cls-2" x="601.21" y="985.67" width="78.52" height="48.94"/><rect class="cls-3" x="1622.52" y="823.3" width="28.46" height="28.46" transform="translate(-111.4 1407.07) rotate(-45.14)"/><rect class="cls-3" x="1642.69" y="843.37" width="28.46" height="28.46" transform="translate(-119.68 1427.28) rotate(-45.14)"/><rect class="cls-3" x="1662.87" y="863.44" width="28.46" height="28.46" transform="translate(-127.97 1447.5) rotate(-45.14)"/><rect class="cls-3" x="1542.04" y="823.5" width="28.46" height="28.46" transform="translate(-135.26 1350.08) rotate(-45.14)"/><rect class="cls-3" x="1521.87" y="803.43" width="28.46" height="28.46" transform="translate(-126.98 1329.86) rotate(-45.14)"/><rect class="cls-3" x="1501.7" y="783.36" width="28.46" height="28.46" transform="translate(-118.69 1309.65) rotate(-45.14)"/><rect class="cls-3" x="1582.28" y="823.4" width="28.46" height="28.46" transform="translate(-123.33 1378.57) rotate(-45.14)"/><rect class="cls-3" x="1562.11" y="803.33" width="28.46" height="28.46" transform="translate(-115.05 1358.36) rotate(-45.14)"/><rect class="cls-3" x="1461.45" y="783.46" width="28.46" height="28.46" transform="translate(-130.62 1281.15) rotate(-45.14)"/><rect class="cls-3" x="1481.62" y="803.54" width="28.46" height="28.46" transform="translate(-138.91 1301.36) rotate(-45.14)"/><rect class="cls-3" x="1401.04" y="763.5" width="28.46" height="28.46" transform="translate(-134.27 1232.44) rotate(-45.14)"/><rect class="cls-4" x="1361.2" y="924.57" width="28.46" height="28.46" transform="translate(-260.19 1251.66) rotate(-45.14)"/><rect class="cls-3" x="1401.34" y="884.22" width="28.46" height="28.46" transform="translate(-219.76 1268.23) rotate(-45.14)"/><rect class="cls-5" x="1341.13" y="944.74" width="28.46" height="28.46" transform="translate(-280.4 1243.38) rotate(-45.14)"/><rect class="cls-6" x="1381.27" y="904.39" width="28.46" height="28.46" transform="translate(-239.98 1259.95) rotate(-45.14)"/><rect class="cls-6" x="1542.24" y="903.99" width="28.46" height="28.46" transform="translate(-192.26 1373.94) rotate(-45.14)"/><rect class="cls-3" x="1522.07" y="883.92" width="28.46" height="28.46" transform="translate(-183.97 1353.72) rotate(-45.14)"/><rect class="cls-7" x="1562.41" y="924.06" width="28.46" height="28.46" transform="translate(-200.54 1394.15) rotate(-45.14)"/><rect class="cls-8" x="1582.59" y="944.13" width="28.46" height="28.46" transform="translate(-208.82 1414.36) rotate(-45.14)"/><rect class="cls-9" x="1622.83" y="944.03" width="28.46" height="28.46" transform="translate(-196.89 1442.86) rotate(-45.14)"/><rect class="cls-7" x="1602.66" y="923.96" width="28.46" height="28.46" transform="translate(-188.61 1422.65) rotate(-45.14)"/><rect class="cls-6" x="1582.48" y="903.89" width="28.46" height="28.46" transform="translate(-180.32 1402.43) rotate(-45.14)"/><rect class="cls-10" x="1341.03" y="904.5" width="28.46" height="28.46" transform="translate(-251.91 1231.45) rotate(-45.14)"/><rect class="cls-11" x="1361.1" y="884.32" width="28.46" height="28.46" transform="translate(-231.69 1239.73) rotate(-45.14)"/><rect class="cls-5" x="1300.89" y="944.84" width="28.46" height="28.46" transform="translate(-292.33 1214.88) rotate(-45.14)"/><rect class="cls-4" x="1320.96" y="924.67" width="28.46" height="28.46" transform="translate(-272.12 1223.17) rotate(-45.14)"/><rect class="cls-3" x="1562.31" y="883.82" width="28.46" height="28.46" transform="translate(-172.04 1382.22) rotate(-45.14)"/><rect class="cls-6" x="1502" y="904.09" width="28.46" height="28.46" transform="translate(-204.19 1345.44) rotate(-45.14)"/><rect class="cls-8" x="1542.34" y="944.23" width="28.46" height="28.46" transform="translate(-220.75 1385.87) rotate(-45.14)"/><rect class="cls-7" x="1522.17" y="924.16" width="28.46" height="28.46" transform="translate(-212.47 1365.65) rotate(-45.14)"/><rect class="cls-3" x="1441.59" y="884.12" width="28.46" height="28.46" transform="translate(-207.83 1296.73) rotate(-45.14)"/><rect class="cls-3" x="1481.83" y="884.02" width="28.46" height="28.46" transform="translate(-195.9 1325.23) rotate(-45.14)"/><rect class="cls-6" x="1421.51" y="904.29" width="28.46" height="28.46" transform="translate(-228.05 1288.44) rotate(-45.14)"/><rect class="cls-7" x="1401.44" y="924.46" width="28.46" height="28.46" transform="translate(-248.26 1280.16) rotate(-45.14)"/><rect class="cls-5" x="1381.37" y="944.64" width="28.46" height="28.46" transform="translate(-268.47 1271.88) rotate(-45.14)"/><rect class="cls-9" x="1662.97" y="903.68" width="28.46" height="28.46" transform="translate(-156.46 1459.43) rotate(-45.14)"/><rect class="cls-11" x="1280.62" y="884.53" width="28.46" height="28.46" transform="translate(-255.55 1182.74) rotate(-45.14)"/><rect class="cls-5" x="1220.41" y="945.04" width="28.46" height="28.46" transform="translate(-316.2 1157.89) rotate(-45.14)"/><rect class="cls-4" x="1240.48" y="924.87" width="28.46" height="28.46" transform="translate(-295.98 1166.17) rotate(-45.14)"/><rect class="cls-10" x="1260.55" y="904.7" width="28.46" height="28.46" transform="translate(-275.77 1174.46) rotate(-45.14)"/><rect class="cls-10" x="1300.79" y="904.6" width="28.46" height="28.46" transform="translate(-263.84 1202.95) rotate(-45.14)"/><rect class="cls-5" x="1260.65" y="944.94" width="28.46" height="28.46" transform="translate(-304.26 1186.39) rotate(-45.14)"/><rect class="cls-4" x="1280.72" y="924.77" width="28.46" height="28.46" transform="translate(-284.05 1194.67) rotate(-45.14)"/><rect class="cls-11" x="1320.86" y="884.43" width="28.46" height="28.46" transform="translate(-243.62 1211.24) rotate(-45.14)"/><rect class="cls-9" x="1663.07" y="943.93" width="28.46" height="28.46" transform="translate(-184.96 1471.36) rotate(-45.14)"/><rect class="cls-9" x="1642.9" y="923.86" width="28.46" height="28.46" transform="translate(-176.68 1451.14) rotate(-45.14)"/><rect class="cls-9" x="1622.73" y="903.79" width="28.46" height="28.46" transform="translate(-168.39 1430.93) rotate(-45.14)"/><rect class="cls-3" x="1602.55" y="883.72" width="28.46" height="28.46" transform="translate(-160.11 1410.72) rotate(-45.14)"/><rect class="cls-8" x="1461.86" y="944.43" width="28.46" height="28.46" transform="translate(-244.61 1328.87) rotate(-45.14)"/><rect class="cls-8" x="1502.1" y="944.33" width="28.46" height="28.46" transform="translate(-232.68 1357.37) rotate(-45.14)"/><rect class="cls-7" x="1481.93" y="924.26" width="28.46" height="28.46" transform="translate(-224.4 1337.16) rotate(-45.14)"/><rect class="cls-8" x="1421.62" y="944.53" width="28.46" height="28.46" transform="translate(-256.54 1300.37) rotate(-45.14)"/><rect class="cls-6" x="1461.76" y="904.19" width="28.46" height="28.46" transform="translate(-216.12 1316.94) rotate(-45.14)"/><rect class="cls-7" x="1441.69" y="924.36" width="28.46" height="28.46" transform="translate(-236.33 1308.66) rotate(-45.14)"/><rect class="cls-11" x="1200.13" y="884.73" width="28.46" height="28.46" transform="translate(-279.41 1125.74) rotate(-45.14)"/><rect class="cls-10" x="1220.3" y="904.8" width="28.46" height="28.46" transform="translate(-287.7 1145.96) rotate(-45.14)"/><rect class="cls-11" x="1240.37" y="884.63" width="28.46" height="28.46" transform="translate(-267.48 1154.24) rotate(-45.14)"/><rect class="cls-4" x="1200.23" y="924.97" width="28.46" height="28.46" transform="translate(-307.91 1137.67) rotate(-45.14)"/><rect class="cls-12" x="1049.38" y="638.04" width="37.85" height="37.85"/><rect class="cls-13" x="1049.38" y="562.33" width="37.85" height="37.85"/><rect class="cls-13" x="1049.38" y="675.89" width="37.85" height="37.85"/><rect class="cls-13" x="1011.53" y="562.33" width="37.85" height="37.85"/><rect class="cls-13" x="1011.53" y="600.18" width="37.85" height="37.85"/><rect class="cls-13" x="1049.38" y="713.74" width="37.85" height="37.85"/><rect class="cls-13" x="1011.53" y="638.04" width="37.85" height="37.85"/><rect class="cls-12" x="1011.53" y="675.89" width="37.85" height="37.85"/><rect class="cls-13" x="1011.53" y="713.74" width="37.85" height="37.85"/><rect class="cls-13" x="1087.23" y="638.04" width="37.85" height="37.85"/><rect class="cls-12" x="1087.23" y="600.18" width="37.85" height="37.85"/><rect class="cls-13" x="1087.23" y="675.89" width="37.85" height="37.85"/><rect class="cls-13" x="1087.23" y="562.33" width="37.85" height="37.85"/><rect class="cls-13" x="1390.06" y="713.74" width="37.85" height="37.85"/><rect class="cls-13" x="1352.2" y="713.74" width="37.85" height="37.85"/><rect class="cls-13" x="1276.5" y="713.74" width="37.85" height="37.85"/><rect class="cls-13" x="1314.35" y="713.74" width="37.85" height="37.85"/><rect class="cls-13" x="935.82" y="713.74" width="37.85" height="37.85"/><rect class="cls-13" x="935.82" y="675.89" width="37.85" height="37.85"/><rect class="cls-13" x="935.82" y="562.33" width="37.85" height="37.85"/><rect class="cls-13" x="935.82" y="638.04" width="37.85" height="37.85"/><rect class="cls-13" x="935.82" y="600.18" width="37.85" height="37.85"/><rect class="cls-13" x="973.68" y="638.04" width="37.85" height="37.85"/><rect class="cls-13" x="973.68" y="675.89" width="37.85" height="37.85"/><rect class="cls-13" x="973.68" y="713.74" width="37.85" height="37.85"/><rect class="cls-13" x="973.68" y="562.33" width="37.85" height="37.85"/><rect class="cls-13" x="973.68" y="600.18" width="37.85" height="37.85"/><rect class="cls-13" x="1049.38" y="600.18" width="37.85" height="37.85"/><rect class="cls-13" x="1314.35" y="638.04" width="37.85" height="37.85"/><rect class="cls-13" x="1352.2" y="638.04" width="37.85" height="37.85"/><rect class="cls-13" x="1465.76" y="638.04" width="37.85" height="37.85"/><rect class="cls-12" x="1390.06" y="638.04" width="37.85" height="37.85"/><rect class="cls-13" x="1200.79" y="638.04" width="37.85" height="37.85"/><rect class="cls-13" x="1238.64" y="638.04" width="37.85" height="37.85"/><rect class="cls-13" x="1276.5" y="638.04" width="37.85" height="37.85"/><rect class="cls-13" x="1427.91" y="638.04" width="37.85" height="37.85"/><rect class="cls-13" x="1162.94" y="562.33" width="37.85" height="37.85"/><rect class="cls-13" x="1125.09" y="562.33" width="37.85" height="37.85"/><rect class="cls-13" x="1125.09" y="638.04" width="37.85" height="37.85"/><rect class="cls-13" x="1125.09" y="600.18" width="37.85" height="37.85"/><rect class="cls-13" x="1238.64" y="675.89" width="37.85" height="37.85"/><rect class="cls-13" x="1427.91" y="675.89" width="37.85" height="37.85"/><rect class="cls-13" x="1390.06" y="675.89" width="37.85" height="37.85"/><rect class="cls-13" x="1276.5" y="675.89" width="37.85" height="37.85"/><rect class="cls-13" x="1314.35" y="675.89" width="37.85" height="37.85"/><rect class="cls-12" x="1352.2" y="675.89" width="37.85" height="37.85"/><rect class="cls-13" x="1390.06" y="562.33" width="37.85" height="37.85"/><rect class="cls-13" x="1465.76" y="562.33" width="37.85" height="37.85"/><rect class="cls-13" x="1352.2" y="562.33" width="37.85" height="37.85"/><rect class="cls-13" x="1427.91" y="562.33" width="37.85" height="37.85"/><rect class="cls-13" x="1238.64" y="562.33" width="37.85" height="37.85"/><rect class="cls-13" x="1314.35" y="562.33" width="37.85" height="37.85"/><rect class="cls-13" x="1276.5" y="562.33" width="37.85" height="37.85"/><rect class="cls-14" x="1238.64" y="600.18" width="37.85" height="37.85"/><rect class="cls-13" x="1200.79" y="600.18" width="37.85" height="37.85"/><rect class="cls-13" x="1276.5" y="600.18" width="37.85" height="37.85"/><rect class="cls-13" x="1314.35" y="600.18" width="37.85" height="37.85"/><rect class="cls-13" x="1200.79" y="562.33" width="37.85" height="37.85"/><rect class="cls-13" x="1352.2" y="600.18" width="37.85" height="37.85"/><rect class="cls-12" x="1427.91" y="600.18" width="37.85" height="37.85"/><rect class="cls-13" x="1390.06" y="600.18" width="37.85" height="37.85"/><rect class="cls-13" x="1465.76" y="600.18" width="37.85" height="37.85"/><rect class="cls-13" x="860.12" y="638.04" width="37.85" height="37.85"/><rect class="cls-13" x="860.12" y="600.18" width="37.85" height="37.85"/><rect class="cls-13" x="860.12" y="562.33" width="37.85" height="37.85"/><rect class="cls-13" x="897.97" y="562.33" width="37.85" height="37.85"/><rect class="cls-14" x="897.97" y="600.18" width="37.85" height="37.85"/><rect class="cls-13" x="897.97" y="675.89" width="37.85" height="37.85"/><rect class="cls-13" x="897.97" y="638.04" width="37.85" height="37.85"/></svg>