<svg id="Layer_1" data-name="Layer 1" xmlns="http://www.w3.org/2000/svg" viewBox="0 0 2328 2500"><defs><style>.cls-1,.cls-2{fill:#facc15;}.cls-1{fill-rule:evenodd;}.cls-3{fill:#d3d7da;}.cls-4{fill:#ffa21a;}.cls-5{fill:#f27622;}.cls-6{fill:#b3b7ba;}.cls-7{fill:#95999b;}.cls-8{fill:#7a7c7c;}.cls-9{fill:#ed1f23;}.cls-10{fill:#ffb229;}.cls-11{fill:#fccf4e;}.cls-12{fill:#fff;}.cls-13{fill:#0a0a0a;}.cls-14{fill:#515151;}</style></defs><title>cactus1</title><path class="cls-1" d="M1414.4,334H919.13V2493.87H1414.4Z"/><rect class="cls-2" x="1403.56" y="1947.28" width="187.55" height="262.57" transform="translate(2994.67 4157.12) rotate(180)"/><rect class="cls-2" x="1590.33" y="1947.28" width="75.8" height="214.34" transform="translate(3256.46 4108.89) rotate(180)"/><rect class="cls-2" x="1664.96" y="1947.28" width="75.8" height="174.15" transform="translate(3405.72 4068.71) rotate(180)"/><rect class="cls-2" x="1606.4" y="1034.86" width="134.08" height="939.77" transform="translate(3346.88 3009.49) rotate(180)"/><rect class="cls-2" x="1629.04" y="999.47" width="94.9" height="40.86" transform="translate(3352.98 2039.8) rotate(180)"/><rect class="cls-2" x="1024.79" y="282.77" width="308.5" height="56.92" transform="translate(2358.08 622.47) rotate(180)"/><rect class="cls-2" x="736.89" y="1559.11" width="187.55" height="262.57"/><rect class="cls-2" x="661.87" y="1559.11" width="75.8" height="214.34"/><rect class="cls-2" x="587.24" y="1559.11" width="75.8" height="174.15"/><rect class="cls-2" x="587.52" y="557.22" width="185.35" height="1125.72"/><rect class="cls-2" x="610.39" y="514.83" width="131.19" height="48.94"/><rect class="cls-3" x="1622.52" y="812.46" width="28.46" height="28.46" transform="translate(-103.72 1403.88) rotate(-45.14)"/><rect class="cls-3" x="1642.69" y="832.53" width="28.46" height="28.46" transform="translate(-112 1424.09) rotate(-45.14)"/><rect class="cls-3" x="1662.87" y="852.6" width="28.46" height="28.46" transform="translate(-120.28 1444.3) rotate(-45.14)"/><rect class="cls-3" x="1542.04" y="812.67" width="28.46" height="28.46" transform="translate(-127.58 1346.88) rotate(-45.14)"/><rect class="cls-3" x="1521.87" y="792.59" width="28.46" height="28.46" transform="translate(-119.29 1326.67) rotate(-45.14)"/><rect class="cls-3" x="1501.7" y="772.52" width="28.46" height="28.46" transform="translate(-111.01 1306.45) rotate(-45.14)"/><rect class="cls-3" x="1582.28" y="812.56" width="28.46" height="28.46" transform="translate(-115.65 1375.38) rotate(-45.14)"/><rect class="cls-3" x="1562.11" y="792.49" width="28.46" height="28.46" transform="translate(-107.36 1355.17) rotate(-45.14)"/><rect class="cls-3" x="1461.45" y="772.63" width="28.46" height="28.46" transform="translate(-122.94 1277.96) rotate(-45.14)"/><rect class="cls-3" x="1481.62" y="792.7" width="28.46" height="28.46" transform="translate(-131.22 1298.17) rotate(-45.14)"/><rect class="cls-3" x="1401.04" y="752.66" width="28.46" height="28.46" transform="translate(-126.59 1229.25) rotate(-45.14)"/><rect class="cls-4" x="1361.2" y="913.73" width="28.46" height="28.46" transform="translate(-252.51 1248.47) rotate(-45.14)"/><rect class="cls-3" x="1401.34" y="873.38" width="28.46" height="28.46" transform="translate(-212.08 1265.04) rotate(-45.14)"/><rect class="cls-5" x="1341.13" y="933.9" width="28.46" height="28.46" transform="translate(-272.72 1240.19) rotate(-45.14)"/><rect class="cls-6" x="1381.27" y="893.56" width="28.46" height="28.46" transform="translate(-232.29 1256.75) rotate(-45.14)"/><rect class="cls-6" x="1542.24" y="893.15" width="28.46" height="28.46" transform="translate(-184.57 1370.74) rotate(-45.14)"/><rect class="cls-3" x="1522.07" y="873.08" width="28.46" height="28.46" transform="translate(-176.29 1350.53) rotate(-45.14)"/><rect class="cls-7" x="1562.41" y="913.22" width="28.46" height="28.46" transform="translate(-192.86 1390.96) rotate(-45.14)"/><rect class="cls-8" x="1582.59" y="933.29" width="28.46" height="28.46" transform="translate(-201.14 1411.17) rotate(-45.14)"/><rect class="cls-9" x="1622.83" y="933.19" width="28.46" height="28.46" transform="translate(-189.21 1439.67) rotate(-45.14)"/><rect class="cls-7" x="1602.66" y="913.12" width="28.46" height="28.46" transform="translate(-180.92 1419.45) rotate(-45.14)"/><rect class="cls-6" x="1582.48" y="893.05" width="28.46" height="28.46" transform="translate(-172.64 1399.24) rotate(-45.14)"/><rect class="cls-10" x="1341.03" y="893.66" width="28.46" height="28.46" transform="translate(-244.22 1228.26) rotate(-45.14)"/><rect class="cls-11" x="1361.1" y="873.48" width="28.46" height="28.46" transform="translate(-224.01 1236.54) rotate(-45.14)"/><rect class="cls-5" x="1300.89" y="934" width="28.46" height="28.46" transform="translate(-284.65 1211.69) rotate(-45.14)"/><rect class="cls-4" x="1320.96" y="913.83" width="28.46" height="28.46" transform="translate(-264.44 1219.97) rotate(-45.14)"/><rect class="cls-3" x="1562.31" y="872.98" width="28.46" height="28.46" transform="translate(-164.36 1379.03) rotate(-45.14)"/><rect class="cls-6" x="1502" y="893.25" width="28.46" height="28.46" transform="translate(-196.5 1342.24) rotate(-45.14)"/><rect class="cls-8" x="1542.34" y="933.39" width="28.46" height="28.46" transform="translate(-213.07 1382.67) rotate(-45.14)"/><rect class="cls-7" x="1522.17" y="913.32" width="28.46" height="28.46" transform="translate(-204.79 1362.46) rotate(-45.14)"/><rect class="cls-3" x="1441.59" y="873.28" width="28.46" height="28.46" transform="translate(-200.15 1293.53) rotate(-45.14)"/><rect class="cls-3" x="1481.83" y="873.18" width="28.46" height="28.46" transform="translate(-188.22 1322.03) rotate(-45.14)"/><rect class="cls-6" x="1421.51" y="893.45" width="28.46" height="28.46" transform="translate(-220.36 1285.25) rotate(-45.14)"/><rect class="cls-7" x="1401.44" y="913.63" width="28.46" height="28.46" transform="translate(-240.58 1276.97) rotate(-45.14)"/><rect class="cls-5" x="1381.37" y="933.8" width="28.46" height="28.46" transform="translate(-260.79 1268.68) rotate(-45.14)"/><rect class="cls-9" x="1662.97" y="892.85" width="28.46" height="28.46" transform="translate(-148.78 1456.23) rotate(-45.14)"/><rect class="cls-11" x="1280.62" y="873.69" width="28.46" height="28.46" transform="translate(-247.87 1179.54) rotate(-45.14)"/><rect class="cls-5" x="1220.41" y="934.2" width="28.46" height="28.46" transform="translate(-308.51 1154.69) rotate(-45.14)"/><rect class="cls-4" x="1240.48" y="914.03" width="28.46" height="28.46" transform="translate(-288.3 1162.98) rotate(-45.14)"/><rect class="cls-10" x="1260.55" y="893.86" width="28.46" height="28.46" transform="translate(-268.08 1171.26) rotate(-45.14)"/><rect class="cls-10" x="1300.79" y="893.76" width="28.46" height="28.46" transform="translate(-256.15 1199.76) rotate(-45.14)"/><rect class="cls-5" x="1260.65" y="934.1" width="28.46" height="28.46" transform="translate(-296.58 1183.19) rotate(-45.14)"/><rect class="cls-4" x="1280.72" y="913.93" width="28.46" height="28.46" transform="translate(-276.37 1191.48) rotate(-45.14)"/><rect class="cls-11" x="1320.86" y="873.59" width="28.46" height="28.46" transform="translate(-235.94 1208.04) rotate(-45.14)"/><rect class="cls-9" x="1663.07" y="933.09" width="28.46" height="28.46" transform="translate(-177.28 1468.16) rotate(-45.14)"/><rect class="cls-9" x="1642.9" y="913.02" width="28.46" height="28.46" transform="translate(-168.99 1447.95) rotate(-45.14)"/><rect class="cls-9" x="1622.73" y="892.95" width="28.46" height="28.46" transform="translate(-160.71 1427.74) rotate(-45.14)"/><rect class="cls-3" x="1602.55" y="872.88" width="28.46" height="28.46" transform="translate(-152.43 1407.52) rotate(-45.14)"/><rect class="cls-8" x="1461.86" y="933.59" width="28.46" height="28.46" transform="translate(-236.93 1325.68) rotate(-45.14)"/><rect class="cls-8" x="1502.1" y="933.49" width="28.46" height="28.46" transform="translate(-225 1354.18) rotate(-45.14)"/><rect class="cls-7" x="1481.93" y="913.42" width="28.46" height="28.46" transform="translate(-216.72 1333.96) rotate(-45.14)"/><rect class="cls-8" x="1421.62" y="933.7" width="28.46" height="28.46" transform="translate(-248.86 1297.18) rotate(-45.14)"/><rect class="cls-6" x="1461.76" y="893.35" width="28.46" height="28.46" transform="translate(-208.43 1313.75) rotate(-45.14)"/><rect class="cls-7" x="1441.69" y="913.52" width="28.46" height="28.46" transform="translate(-228.65 1305.46) rotate(-45.14)"/><rect class="cls-11" x="1200.13" y="873.89" width="28.46" height="28.46" transform="translate(-271.73 1122.55) rotate(-45.14)"/><rect class="cls-10" x="1220.3" y="893.96" width="28.46" height="28.46" transform="translate(-280.01 1142.76) rotate(-45.14)"/><rect class="cls-11" x="1240.37" y="873.79" width="28.46" height="28.46" transform="translate(-259.8 1151.05) rotate(-45.14)"/><rect class="cls-4" x="1200.23" y="914.13" width="28.46" height="28.46" transform="translate(-300.23 1134.48) rotate(-45.14)"/><rect class="cls-12" x="1049.38" y="627.2" width="37.85" height="37.85"/><rect class="cls-13" x="1049.38" y="551.49" width="37.85" height="37.85"/><rect class="cls-13" x="1049.38" y="665.05" width="37.85" height="37.85"/><rect class="cls-13" x="1011.53" y="551.49" width="37.85" height="37.85"/><rect class="cls-13" x="1011.53" y="589.35" width="37.85" height="37.85"/><rect class="cls-13" x="1049.38" y="702.9" width="37.85" height="37.85"/><rect class="cls-13" x="1011.53" y="627.2" width="37.85" height="37.85"/><rect class="cls-12" x="1011.53" y="665.05" width="37.85" height="37.85"/><rect class="cls-13" x="1011.53" y="702.9" width="37.85" height="37.85"/><rect class="cls-13" x="1087.23" y="627.2" width="37.85" height="37.85"/><rect class="cls-12" x="1087.23" y="589.35" width="37.85" height="37.85"/><rect class="cls-13" x="1087.23" y="665.05" width="37.85" height="37.85"/><rect class="cls-13" x="1087.23" y="551.49" width="37.85" height="37.85"/><rect class="cls-13" x="1390.06" y="702.9" width="37.85" height="37.85"/><rect class="cls-13" x="1352.2" y="702.9" width="37.85" height="37.85"/><rect class="cls-13" x="1276.5" y="702.9" width="37.85" height="37.85"/><rect class="cls-13" x="1314.35" y="702.9" width="37.85" height="37.85"/><rect class="cls-13" x="935.82" y="702.9" width="37.85" height="37.85"/><rect class="cls-13" x="935.82" y="665.05" width="37.85" height="37.85"/><rect class="cls-13" x="935.82" y="551.49" width="37.85" height="37.85"/><rect class="cls-13" x="935.82" y="627.2" width="37.85" height="37.85"/><rect class="cls-13" x="935.82" y="589.35" width="37.85" height="37.85"/><rect class="cls-13" x="973.68" y="627.2" width="37.85" height="37.85"/><rect class="cls-13" x="973.68" y="665.05" width="37.85" height="37.85"/><rect class="cls-13" x="973.68" y="702.9" width="37.85" height="37.85"/><rect class="cls-13" x="973.68" y="551.49" width="37.85" height="37.85"/><rect class="cls-13" x="973.68" y="589.35" width="37.85" height="37.85"/><rect class="cls-13" x="1049.38" y="589.35" width="37.85" height="37.85"/><rect class="cls-13" x="1314.35" y="627.2" width="37.85" height="37.85"/><rect class="cls-13" x="1352.2" y="627.2" width="37.85" height="37.85"/><rect class="cls-13" x="1465.76" y="627.2" width="37.85" height="37.85"/><rect class="cls-12" x="1390.06" y="627.2" width="37.85" height="37.85"/><rect class="cls-13" x="1200.79" y="627.2" width="37.85" height="37.85"/><rect class="cls-13" x="1238.64" y="627.2" width="37.85" height="37.85"/><rect class="cls-13" x="1276.5" y="627.2" width="37.85" height="37.85"/><rect class="cls-13" x="1427.91" y="627.2" width="37.85" height="37.85"/><rect class="cls-13" x="1162.94" y="551.49" width="37.85" height="37.85"/><rect class="cls-13" x="1125.09" y="551.49" width="37.85" height="37.85"/><rect class="cls-13" x="1125.09" y="627.2" width="37.85" height="37.85"/><rect class="cls-13" x="1125.09" y="589.35" width="37.85" height="37.85"/><rect class="cls-13" x="1238.64" y="665.05" width="37.85" height="37.85"/><rect class="cls-13" x="1427.91" y="665.05" width="37.85" height="37.85"/><rect class="cls-13" x="1390.06" y="665.05" width="37.85" height="37.85"/><rect class="cls-13" x="1276.5" y="665.05" width="37.85" height="37.85"/><rect class="cls-13" x="1314.35" y="665.05" width="37.85" height="37.85"/><rect class="cls-12" x="1352.2" y="665.05" width="37.85" height="37.85"/><rect class="cls-13" x="1390.06" y="551.49" width="37.85" height="37.85"/><rect class="cls-13" x="1465.76" y="551.49" width="37.85" height="37.85"/><rect class="cls-13" x="1352.2" y="551.49" width="37.85" height="37.85"/><rect class="cls-13" x="1427.91" y="551.49" width="37.85" height="37.85"/><rect class="cls-13" x="1238.64" y="551.49" width="37.85" height="37.85"/><rect class="cls-13" x="1314.35" y="551.49" width="37.85" height="37.85"/><rect class="cls-13" x="1276.5" y="551.49" width="37.85" height="37.85"/><rect class="cls-14" x="1238.64" y="589.35" width="37.85" height="37.85"/><rect class="cls-13" x="1200.79" y="589.35" width="37.85" height="37.85"/><rect class="cls-13" x="1276.5" y="589.35" width="37.85" height="37.85"/><rect class="cls-13" x="1314.35" y="589.35" width="37.85" height="37.85"/><rect class="cls-13" x="1200.79" y="551.49" width="37.85" height="37.85"/><rect class="cls-13" x="1352.2" y="589.35" width="37.85" height="37.85"/><rect class="cls-12" x="1427.91" y="589.35" width="37.85" height="37.85"/><rect class="cls-13" x="1390.06" y="589.35" width="37.85" height="37.85"/><rect class="cls-13" x="1465.76" y="589.35" width="37.85" height="37.85"/><rect class="cls-13" x="860.12" y="627.2" width="37.85" height="37.85"/><rect class="cls-13" x="860.12" y="589.35" width="37.85" height="37.85"/><rect class="cls-13" x="860.12" y="551.49" width="37.85" height="37.85"/><rect class="cls-13" x="897.97" y="551.49" width="37.85" height="37.85"/><rect class="cls-14" x="897.97" y="589.35" width="37.85" height="37.85"/><rect class="cls-13" x="897.97" y="665.05" width="37.85" height="37.85"/><rect class="cls-13" x="897.97" y="627.2" width="37.85" height="37.85"/></svg>