<svg id="Layer_1" data-name="Layer 1" xmlns="http://www.w3.org/2000/svg" viewBox="0 0 2328 2500"><defs><style>.cls-1{fill:#facc15;fill-rule:evenodd;}</style></defs><title>dino_yellow</title><path class="cls-1" d="M2057.38,827.17h-326V737.88h542.18V232.94H2163.75V123H1281.86V232.93H1175.48V937.1H1065.69v106.48H904.41V1153.5H743.13v109.91H633.32V1369.9h-199V1260H327.92V1153.5H218.12V937.1H94.59v666.38H201v109.91h109.8v106.49H417.14V1929.8H527v106.48H633.32v432.81H866.66V2345.42H760.28v-92.73H866.66V2146.21H976.47V2036.29h89.21v109.92h109.81V2469.1h233.34V2345.42H1299V1929.79h109.81v-109.9H1515.2V1658.44H1625V1280.6h89.22v106.49h127V1153.51H1625V954.28h432.36Z"/><rect x="1388.24" y="281.02" width="130.39" height="130.53"/></svg>