<svg id="Layer_1" data-name="Layer 1" xmlns="http://www.w3.org/2000/svg" viewBox="0 0 2328 2500"><defs><style>.cls-1,.cls-2{fill:#facc15;}.cls-1{fill-rule:evenodd;}</style></defs><title>saneCactus2</title><path class="cls-1" d="M1364.85,340.17H869.58V2500.06h495.27Z"/><rect class="cls-2" x="1354.01" y="1953.47" width="187.55" height="262.57" transform="translate(2895.57 4169.51) rotate(180)"/><rect class="cls-2" x="1540.78" y="1953.47" width="75.8" height="214.34" transform="translate(3157.36 4121.28) rotate(180)"/><rect class="cls-2" x="1615.41" y="1953.47" width="75.8" height="174.15" transform="translate(3306.62 4081.09) rotate(180)"/><rect class="cls-2" x="1556.86" y="1041.05" width="134.08" height="939.77" transform="translate(3247.79 3021.87) rotate(180)"/><rect class="cls-2" x="1579.49" y="1005.66" width="94.9" height="40.86" transform="translate(3253.88 2052.19) rotate(180)"/><rect class="cls-2" x="975.24" y="288.97" width="308.5" height="56.92" transform="translate(2258.98 634.85) rotate(180)"/><rect class="cls-2" x="687.34" y="1565.3" width="187.55" height="262.57"/><rect class="cls-2" x="612.32" y="1565.3" width="75.8" height="214.34"/><rect class="cls-2" x="537.69" y="1565.3" width="75.8" height="174.15"/><rect class="cls-2" x="537.97" y="563.41" width="185.35" height="1125.72"/><rect class="cls-2" x="560.84" y="521.02" width="131.19" height="48.94"/></svg>