<svg id="Layer_1" data-name="Layer 1" xmlns="http://www.w3.org/2000/svg" viewBox="0 0 2328 2500"><defs><style>.cls-1,.cls-2{fill:#facc15;}.cls-1{fill-rule:evenodd;}</style></defs><title>saneCactus1</title><path class="cls-1" d="M1414.4,344.82H919.13V2504.71H1414.4Z"/><rect class="cls-2" x="1403.56" y="1678.11" width="187.55" height="262.57" transform="translate(2994.67 3618.8) rotate(180)"/><rect class="cls-2" x="1590.33" y="1678.11" width="75.8" height="214.34" transform="translate(3256.46 3570.57) rotate(180)"/><rect class="cls-2" x="1664.96" y="1678.11" width="75.8" height="174.15" transform="translate(3405.72 3530.38) rotate(180)"/><rect class="cls-2" x="1546.97" y="1073.29" width="193.51" height="632.18" transform="translate(3287.45 2778.75) rotate(180)"/><rect class="cls-2" x="1579.64" y="1049.48" width="136.97" height="27.49" transform="translate(3296.24 2126.45) rotate(180)"/><rect class="cls-2" x="1024.79" y="293.61" width="308.5" height="56.92" transform="translate(2358.08 644.14) rotate(180)"/><rect class="cls-2" x="736.89" y="2029.95" width="187.55" height="262.57"/><rect class="cls-2" x="661.87" y="2029.95" width="75.8" height="214.34"/><rect class="cls-2" x="587.24" y="2029.95" width="75.8" height="174.15"/><rect class="cls-2" x="587.52" y="1028.06" width="110.93" height="1125.72"/><rect class="cls-2" x="601.21" y="985.67" width="78.52" height="48.94"/></svg>